<svg width="28" height="31" viewBox="0 0 28 31" fill="none" xmlns="http://www.w3.org/2000/svg">
<path fill-rule="evenodd" clip-rule="evenodd" d="M8.4541 1.37426C7.8823 2.14388 5.75261 5.0071 3.72214 7.73685L0.0303696 12.6997L0.0285645 17.9487L4.70461 24.2368C7.27622 27.6953 9.41012 30.5555 9.44679 30.5922C9.50151 30.6463 9.90135 30.1376 11.6041 27.8462C12.9907 25.9811 13.6845 25.0058 13.6641 24.9523C13.6472 24.9078 13.2095 24.3023 12.6912 23.6067L11.7496 22.3416L10.6301 23.849C9.57426 25.2704 9.50572 25.3503 9.42454 25.2643C9.18765 25.0124 2.08369 15.3916 2.08189 15.3194C2.07828 15.2148 9.43597 5.29271 9.50271 5.31255C9.54119 5.32337 16.6127 14.7909 16.8923 15.2064C16.9674 15.3176 16.9181 15.3922 15.6362 17.1154L14.302 18.9096L14.6538 19.3906C14.8474 19.6551 15.2911 20.2522 15.6398 20.7176L16.2742 21.563L18.9336 17.9872V12.6666L14.2719 6.39843C11.7081 2.95078 9.58448 0.0953666 9.55261 0.0526767C9.50511 -0.0104562 9.30068 0.236663 8.4541 1.37426Z" fill="#D5D1FA"/>
<path fill-rule="evenodd" clip-rule="evenodd" d="M16.5186 2.6582C15.4333 4.11987 14.4899 5.39155 14.4232 5.48415L14.3017 5.6531L15.2716 6.95724C15.8049 7.67455 16.257 8.26079 16.2763 8.26019C16.2955 8.25959 16.8018 7.59399 17.4019 6.78107C18.0013 5.96816 18.5094 5.30797 18.5292 5.31399C18.5497 5.32 20.2404 7.57655 22.2859 10.3285L26.0048 15.3317L24.0068 18.0199C19.1179 24.5972 18.5671 25.3343 18.5304 25.3446C18.5094 25.3512 16.8174 23.1012 14.7695 20.345L11.0471 15.3341L12.3693 13.5531C13.0962 12.5731 13.6842 11.7427 13.6764 11.7072C13.6469 11.5762 11.753 9.08573 11.7145 9.12721C11.6928 9.15126 11.0874 9.96297 10.3701 10.931L9.06531 12.6909L9.06771 17.9538L13.7432 24.2418C16.3142 27.7009 18.4468 30.5581 18.4817 30.5918C18.5304 30.6393 19.5953 29.2384 23.2582 24.3098L27.9715 17.9664V12.6693L23.2606 6.33374C20.6697 2.8494 18.537 -0.00120215 18.5214 3.80328e-07C18.5052 0.000601646 17.6045 1.19712 16.5186 2.6582Z" fill="#AAA3F5"/>
</svg>
